<svg width="101" height="101" viewBox="0 0 101 101" fill="none" xmlns="http://www.w3.org/2000/svg">
<circle cx="50.5" cy="50.5" r="50.5" fill="#D9D9D9" fill-opacity="0.28"/>
<rect x="15" y="23" width="7" height="56" rx="3" fill="#4E4E4E"/>
<rect x="15" y="23" width="7" height="56" rx="3" fill="#4E4E4E"/>
<rect x="15" y="23" width="7" height="56" rx="3" fill="black"/>
<rect x="54" y="23" width="7" height="56" rx="3" fill="#4E4E4E"/>
<rect x="54" y="23" width="7" height="56" rx="3" fill="#4E4E4E"/>
<rect x="54" y="23" width="7" height="56" rx="3" fill="black"/>
<path d="M23.1255 27.5586C22.5698 26.247 23.1138 24.7285 24.3759 24.0681C25.6383 23.4075 27.1963 23.8266 27.9569 25.0313L41.7348 46.8539C41.8743 47.075 41.9964 47.3067 42.0997 47.5469L53.1041 73.1193C53.667 74.4275 53.127 75.9484 51.8651 76.6087C50.6054 77.2679 49.0506 76.8471 48.2953 75.6426L33.7161 52.3938C33.575 52.1686 33.4519 51.9326 33.3483 51.6879L23.1255 27.5586Z" fill="#4E4E4E"/>
<path d="M23.1255 27.5586C22.5698 26.247 23.1138 24.7285 24.3759 24.0681C25.6383 23.4075 27.1963 23.8266 27.9569 25.0313L41.7348 46.8539C41.8743 47.075 41.9964 47.3067 42.0997 47.5469L53.1041 73.1193C53.667 74.4275 53.127 75.9484 51.8651 76.6087C50.6054 77.2679 49.0506 76.8471 48.2953 75.6426L33.7161 52.3938C33.575 52.1686 33.4519 51.9326 33.3483 51.6879L23.1255 27.5586Z" fill="#4E4E4E"/>
<path d="M23.1255 27.5586C22.5698 26.247 23.1138 24.7285 24.3759 24.0681C25.6383 23.4075 27.1963 23.8266 27.9569 25.0313L41.7348 46.8539C41.8743 47.075 41.9964 47.3067 42.0997 47.5469L53.1041 73.1193C53.667 74.4275 53.127 75.9484 51.8651 76.6087C50.6054 77.2679 49.0506 76.8471 48.2953 75.6426L33.7161 52.3938C33.575 52.1686 33.4519 51.9326 33.3483 51.6879L23.1255 27.5586Z" fill="black"/>
<rect x="66" y="28" width="4" height="50" fill="#FF0000"/>
<path d="M70 46.3682L70.0049 42.3649L89.686 42.3891C90.7915 42.3905 91.6865 43.2877 91.6852 44.3932C91.6838 45.4987 90.7866 46.3937 89.6811 46.3924L70 46.3682Z" fill="#FF0000"/>
<path d="M69.9992 32.0064L70.0041 28L88.9747 28.0233C90.0811 28.0247 90.9768 28.9227 90.9755 30.029C90.9741 31.1353 90.0761 32.0311 88.9698 32.0297L69.9992 32.0064Z" fill="#FF0000"/>
</svg>
